<mxfile host="app.diagrams.net" modified="2023-05-19T09:33:00.498Z" agent="Mozilla/5.0 (Windows NT 10.0; Win64; x64) AppleWebKit/537.36 (KHTML, like Gecko) Chrome/113.0.0.0 Safari/537.36" etag="RIH1divkIY8ZVxmPXwW2" version="21.2.9" type="github">
  <diagram name="第 1 页" id="eaUH0E-vIga88360SRn3">
    <mxGraphModel dx="1050" dy="541" grid="1" gridSize="10" guides="1" tooltips="1" connect="1" arrows="1" fold="1" page="1" pageScale="1" pageWidth="1654" pageHeight="1169" math="0" shadow="0">
      <root>
        <mxCell id="0" />
        <mxCell id="1" parent="0" />
        <mxCell id="oNlZSO98Yklfzs_Q-pST-1" value="" style="strokeWidth=2;html=1;shape=mxgraph.flowchart.annotation_2;align=left;labelPosition=right;pointerEvents=1;labelBackgroundColor=none;labelBorderColor=none;rounded=1;" vertex="1" parent="1">
          <mxGeometry x="1319" y="203" width="50" height="100" as="geometry" />
        </mxCell>
        <mxCell id="oNlZSO98Yklfzs_Q-pST-2" value="&lt;font style=&quot;font-size: 14px;&quot;&gt;我要请假&lt;/font&gt;" style="rounded=1;whiteSpace=wrap;html=1;labelBackgroundColor=none;labelBorderColor=none;" vertex="1" parent="1">
          <mxGeometry x="1369" y="170" width="120" height="60" as="geometry" />
        </mxCell>
        <mxCell id="oNlZSO98Yklfzs_Q-pST-3" value="&lt;font style=&quot;font-size: 14px;&quot;&gt;请假记录&lt;/font&gt;" style="rounded=1;whiteSpace=wrap;html=1;labelBackgroundColor=none;labelBorderColor=none;" vertex="1" parent="1">
          <mxGeometry x="1369" y="273" width="120" height="60" as="geometry" />
        </mxCell>
        <mxCell id="oNlZSO98Yklfzs_Q-pST-4" value="" style="shape=umlActor;verticalLabelPosition=bottom;verticalAlign=top;html=1;outlineConnect=0;fontSize=15;rounded=1;labelBackgroundColor=none;" vertex="1" parent="1">
          <mxGeometry x="1278" y="223" width="30" height="60" as="geometry" />
        </mxCell>
      </root>
    </mxGraphModel>
  </diagram>
</mxfile>
